<svg xmlns="http://www.w3.org/2000/svg" xmlns:xlink="http://www.w3.org/1999/xlink" width="500" zoomAndPan="magnify" viewBox="0 0 375 374.999991" height="500" preserveAspectRatio="xMidYMid meet" version="1.0"><defs><filter x="0%" y="0%" width="100%" height="100%" id="74acbfc5ef"><feColorMatrix values="0 0 0 0 1 0 0 0 0 1 0 0 0 0 1 0 0 0 1 0" color-interpolation-filters="sRGB"/></filter><g/><clipPath id="40165b6793"><path d="M 78.714844 107.011719 L 307.457031 107.011719 L 307.457031 231.511719 L 78.714844 231.511719 Z M 78.714844 107.011719 " clip-rule="nonzero"/></clipPath><clipPath id="c001865975"><path d="M 92.457031 144.894531 L 232.328125 144.894531 L 232.328125 243.082031 L 92.457031 243.082031 Z M 92.457031 144.894531 " clip-rule="nonzero"/></clipPath><clipPath id="9105a4d4be"><path d="M 254 107.011719 L 270 107.011719 L 270 188.761719 L 254 188.761719 Z M 254 107.011719 " clip-rule="nonzero"/></clipPath><clipPath id="1c4ef6a75f"><path d="M 276 107.011719 L 296.175781 107.011719 L 296.175781 188.761719 L 276 188.761719 Z M 276 107.011719 " clip-rule="nonzero"/></clipPath><mask id="04aabf1ebe"><g filter="url(#74acbfc5ef)"><rect x="-37.5" width="450" fill="#000000" y="-37.499999" height="449.999989" fill-opacity="0.3"/></g></mask><clipPath id="8ad7691d4a"><path d="M 0.320312 1 L 0.800781 1 L 0.800781 1.679688 L 0.320312 1.679688 Z M 0.320312 1 " clip-rule="nonzero"/></clipPath><clipPath id="85ee942113"><rect x="0" width="1" y="0" height="2"/></clipPath><clipPath id="a61abb60bb"><path d="M 258 107.011719 L 267 107.011719 L 267 116 L 258 116 Z M 258 107.011719 " clip-rule="nonzero"/></clipPath><mask id="191bcdcbb0"><g filter="url(#74acbfc5ef)"><rect x="-37.5" width="450" fill="#000000" y="-37.499999" height="449.999989" fill-opacity="0.3"/></g></mask><clipPath id="920a072ec9"><path d="M 0.480469 0.0117188 L 8 0.0117188 L 8 8.921875 L 0.480469 8.921875 Z M 0.480469 0.0117188 " clip-rule="nonzero"/></clipPath><clipPath id="374f5456ac"><rect x="0" width="9" y="0" height="9"/></clipPath><clipPath id="8a29d1777c"><path d="M 282 107.011719 L 291 107.011719 L 291 116 L 282 116 Z M 282 107.011719 " clip-rule="nonzero"/></clipPath><mask id="36743c7bf6"><g filter="url(#74acbfc5ef)"><rect x="-37.5" width="450" fill="#000000" y="-37.499999" height="449.999989" fill-opacity="0.3"/></g></mask><clipPath id="eaea319eff"><path d="M 0.480469 0.0117188 L 8.160156 0.0117188 L 8.160156 8.921875 L 0.480469 8.921875 Z M 0.480469 0.0117188 " clip-rule="nonzero"/></clipPath><clipPath id="3254e98e52"><rect x="0" width="9" y="0" height="9"/></clipPath><clipPath id="cc56e00766"><path d="M 61.074219 179.46875 L 172.824219 179.46875 L 172.824219 234.96875 L 61.074219 234.96875 Z M 61.074219 179.46875 " clip-rule="nonzero"/></clipPath></defs><g clip-path="url(#40165b6793)"><path stroke-linecap="butt" transform="matrix(0.75, 0, 0, 0.75, 78.714631, 107.012967)" fill="none" stroke-linejoin="miter" d="M 0.000284292 -0.00166376 L 305.088846 -0.00166376 L 305.088846 166.232722 L 0.000284292 166.232722 Z M 0.000284292 -0.00166376 " stroke="#222223" stroke-width="11" stroke-opacity="1" stroke-miterlimit="4"/></g><g clip-path="url(#c001865975)"><path fill="#ffffff" d="M 92.457031 144.894531 L 232.453125 144.894531 L 232.453125 243.082031 L 92.457031 243.082031 Z M 92.457031 144.894531 " fill-opacity="1" fill-rule="nonzero"/></g><g clip-path="url(#9105a4d4be)"><path fill="#222223" d="M 260.269531 149.441406 C 260.269531 144.585938 255.609375 110.816406 258.25 98.554688 C 259.351562 93.429688 265.109375 94.097656 266.066406 98.554688 C 268.503906 109.871094 264.144531 120.285156 264.144531 149.707031 C 264.144531 153.734375 267.25 153.835938 268.933594 159.035156 C 270.433594 163.675781 268.3125 188.664062 267.632812 188.664062 C 266.851562 188.664062 267.234375 167.023438 265.753906 167.023438 C 264.265625 167.023438 265.019531 188.371094 264.074219 188.664062 C 263.132812 188.957031 263.824219 167.023438 262.082031 167.023438 C 260.320312 167.023438 261.464844 188.664062 260.519531 188.664062 C 259.578125 188.664062 259.84375 167.023438 258.40625 167.023438 C 256.824219 167.023438 257.671875 188.664062 256.964844 188.664062 C 255.765625 188.664062 254.355469 165.164062 255.105469 160.199219 C 255.851562 155.234375 260.265625 154.292969 260.265625 149.4375 Z M 260.269531 149.441406 " fill-opacity="1" fill-rule="nonzero"/></g><g clip-path="url(#1c4ef6a75f)"><path fill="#222223" d="M 284.179688 150.480469 C 284.179688 120.933594 279.433594 108.921875 282.160156 98.492188 C 283.460938 93.519531 289.019531 94.105469 289.980469 98.492188 C 292.1875 108.597656 288.054688 121.53125 288.054688 150.480469 C 288.054688 153.847656 296.476562 153.269531 296.476562 164.789062 C 296.476562 179.203125 291.117188 188.746094 286.007812 188.746094 C 281.242188 188.746094 276.066406 178.28125 276.066406 164.789062 C 276.066406 153.972656 284.179688 153.257812 284.179688 150.480469 Z M 284.179688 150.480469 " fill-opacity="1" fill-rule="nonzero"/></g><g mask="url(#04aabf1ebe)"><g transform="matrix(1, 0, 0, 1, 256, 168)"><g clip-path="url(#85ee942113)"><g clip-path="url(#8ad7691d4a)"><path fill="#222223" d="M 0.671875 1.335938 C 0.664062 1.183594 0.59375 1.078125 0.511719 1.097656 C 0.433594 1.113281 0.378906 1.253906 0.390625 1.40625 C 0.398438 1.558594 0.46875 1.664062 0.546875 1.648438 C 0.628906 1.628906 0.683594 1.488281 0.671875 1.335938 Z M 0.671875 1.335938 " fill-opacity="0.777" fill-rule="nonzero"/></g></g></g></g><g clip-path="url(#a61abb60bb)"><g mask="url(#191bcdcbb0)"><g transform="matrix(1, 0, 0, 1, 258, 107)"><g clip-path="url(#374f5456ac)"><g clip-path="url(#920a072ec9)"><path fill="#222223" d="M 0.785156 -8.285156 C 1.253906 -10.410156 3.253906 -11.902344 5.320312 -10.9375 C 7.609375 -9.863281 7.9375 -6.316406 7.953125 -4.394531 C 7.980469 -0.984375 7.621094 1.535156 7.210938 4.875 C 7.082031 5.914062 6.875 7.84375 6.667969 8.796875 C 6.660156 6.105469 7.082031 3.496094 6.578125 0.820312 C 5.832031 -1.691406 6.664062 -6.289062 4.257812 -7.972656 C 3.0625 -8.804688 0.917969 -7.152344 0.785156 -8.285156 Z M 0.785156 -8.285156 " fill-opacity="1" fill-rule="nonzero"/></g></g></g></g></g><g clip-path="url(#8a29d1777c)"><g mask="url(#36743c7bf6)"><g transform="matrix(1, 0, 0, 1, 282, 107)"><g clip-path="url(#3254e98e52)"><g clip-path="url(#eaea319eff)"><path fill="#222223" d="M 0.851562 -8.285156 C 1.324219 -10.410156 3.324219 -11.902344 5.386719 -10.9375 C 7.675781 -9.863281 8.003906 -6.316406 8.019531 -4.394531 C 8.046875 -0.984375 7.691406 1.535156 7.277344 4.875 C 7.152344 5.914062 6.945312 7.84375 6.734375 8.796875 C 6.730469 6.105469 7.148438 3.496094 6.644531 0.820312 C 5.898438 -1.691406 6.730469 -6.289062 4.324219 -7.972656 C 3.128906 -8.804688 0.984375 -7.152344 0.851562 -8.285156 Z M 0.851562 -8.285156 " fill-opacity="1" fill-rule="nonzero"/></g></g></g></g></g><g clip-path="url(#cc56e00766)"><path fill="#ffffff" d="M 170.578125 234.9375 L 63.324219 234.9375 C 62.082031 234.9375 61.074219 233.933594 61.074219 232.699219 L 61.074219 181.75 C 61.074219 180.515625 62.082031 179.511719 63.324219 179.511719 L 170.578125 179.511719 C 171.820312 179.511719 172.828125 180.515625 172.828125 181.75 L 172.828125 232.699219 C 172.828125 233.933594 171.820312 234.9375 170.578125 234.9375 Z M 170.578125 234.9375 " fill-opacity="1" fill-rule="nonzero"/></g><g fill="#222223" fill-opacity="1"><g transform="translate(74.019016, 178.81243)"><g><path d="M 14.3125 -18.234375 C 15.6875 -18.234375 16.90625 -18.398438 17.96875 -18.734375 C 19.03125 -19.066406 19.914062 -19.539062 20.625 -20.15625 C 21.34375 -20.78125 21.882812 -21.519531 22.25 -22.375 C 22.613281 -23.226562 22.796875 -24.171875 22.796875 -25.203125 C 22.796875 -27.304688 22.101562 -28.890625 20.71875 -29.953125 C 19.332031 -31.023438 17.257812 -31.5625 14.5 -31.5625 L 9.28125 -31.5625 L 9.28125 -18.234375 Z M 30.640625 0 L 26.390625 0 C 25.515625 0 24.875 -0.335938 24.46875 -1.015625 L 15.296875 -13.640625 C 15.015625 -14.035156 14.710938 -14.316406 14.390625 -14.484375 C 14.066406 -14.660156 13.570312 -14.75 12.90625 -14.75 L 9.28125 -14.75 L 9.28125 0 L 4.515625 0 L 4.515625 -35.34375 L 14.5 -35.34375 C 16.738281 -35.34375 18.671875 -35.113281 20.296875 -34.65625 C 21.921875 -34.207031 23.265625 -33.554688 24.328125 -32.703125 C 25.390625 -31.847656 26.175781 -30.816406 26.6875 -29.609375 C 27.195312 -28.398438 27.453125 -27.046875 27.453125 -25.546875 C 27.453125 -24.296875 27.253906 -23.128906 26.859375 -22.046875 C 26.460938 -20.960938 25.890625 -19.988281 25.140625 -19.125 C 24.390625 -18.257812 23.476562 -17.519531 22.40625 -16.90625 C 21.332031 -16.300781 20.113281 -15.84375 18.75 -15.53125 C 19.351562 -15.1875 19.878906 -14.6875 20.328125 -14.03125 Z M 30.640625 0 "/></g></g></g><g fill="#222223" fill-opacity="1"><g transform="translate(109.851461, 178.81243)"><g><path d="M 26.3125 -3.890625 L 26.296875 0 L 4.515625 0 L 4.515625 -35.34375 L 26.296875 -35.34375 L 26.296875 -31.453125 L 9.296875 -31.453125 L 9.296875 -19.703125 L 23.0625 -19.703125 L 23.0625 -15.953125 L 9.296875 -15.953125 L 9.296875 -3.890625 Z M 26.3125 -3.890625 "/></g></g></g><g fill="#222223" fill-opacity="1"><g transform="translate(143.267213, 178.81243)"><g><path d="M 33.15625 -35.34375 L 33.15625 0 L 30.75 0 C 30.375 0 30.054688 -0.0625 29.796875 -0.1875 C 29.546875 -0.320312 29.296875 -0.546875 29.046875 -0.859375 L 8.609375 -27.5 C 8.640625 -27.09375 8.660156 -26.691406 8.671875 -26.296875 C 8.691406 -25.898438 8.703125 -25.53125 8.703125 -25.1875 L 8.703125 0 L 4.515625 0 L 4.515625 -35.34375 L 6.984375 -35.34375 C 7.191406 -35.34375 7.367188 -35.328125 7.515625 -35.296875 C 7.671875 -35.273438 7.804688 -35.234375 7.921875 -35.171875 C 8.035156 -35.117188 8.148438 -35.039062 8.265625 -34.9375 C 8.378906 -34.832031 8.5 -34.695312 8.625 -34.53125 L 29.078125 -7.921875 C 29.046875 -8.347656 29.015625 -8.757812 28.984375 -9.15625 C 28.960938 -9.5625 28.953125 -9.945312 28.953125 -10.3125 L 28.953125 -35.34375 Z M 33.15625 -35.34375 "/></g></g></g><g fill="#222223" fill-opacity="1"><g transform="translate(185.856528, 178.81243)"><g><path d="M 26.3125 -3.890625 L 26.296875 0 L 4.515625 0 L 4.515625 -35.34375 L 26.296875 -35.34375 L 26.296875 -31.453125 L 9.296875 -31.453125 L 9.296875 -19.703125 L 23.0625 -19.703125 L 23.0625 -15.953125 L 9.296875 -15.953125 L 9.296875 -3.890625 Z M 26.3125 -3.890625 "/></g></g></g><g fill="#222223" fill-opacity="1"><g transform="translate(74.019016, 231.33431)"><g><path d="M 33.21875 -17 L 33.21875 -3.421875 C 31.445312 -2.140625 29.550781 -1.179688 27.53125 -0.546875 C 25.519531 0.078125 23.316406 0.390625 20.921875 0.390625 C 18.066406 0.390625 15.5 -0.046875 13.21875 -0.921875 C 10.9375 -1.804688 8.984375 -3.039062 7.359375 -4.625 C 5.742188 -6.207031 4.5 -8.109375 3.625 -10.328125 C 2.75 -12.546875 2.3125 -14.988281 2.3125 -17.65625 C 2.3125 -20.351562 2.734375 -22.8125 3.578125 -25.03125 C 4.429688 -27.25 5.640625 -29.148438 7.203125 -30.734375 C 8.765625 -32.328125 10.660156 -33.554688 12.890625 -34.421875 C 15.128906 -35.296875 17.628906 -35.734375 20.390625 -35.734375 C 21.796875 -35.734375 23.097656 -35.628906 24.296875 -35.421875 C 25.492188 -35.222656 26.601562 -34.929688 27.625 -34.546875 C 28.644531 -34.160156 29.585938 -33.691406 30.453125 -33.140625 C 31.328125 -32.585938 32.144531 -31.96875 32.90625 -31.28125 L 31.546875 -29.109375 C 31.328125 -28.773438 31.050781 -28.5625 30.71875 -28.46875 C 30.382812 -28.382812 30.007812 -28.460938 29.59375 -28.703125 C 29.195312 -28.929688 28.742188 -29.210938 28.234375 -29.546875 C 27.722656 -29.878906 27.101562 -30.195312 26.375 -30.5 C 25.644531 -30.800781 24.78125 -31.054688 23.78125 -31.265625 C 22.789062 -31.484375 21.613281 -31.59375 20.25 -31.59375 C 18.257812 -31.59375 16.457031 -31.265625 14.84375 -30.609375 C 13.238281 -29.960938 11.867188 -29.035156 10.734375 -27.828125 C 9.597656 -26.617188 8.722656 -25.15625 8.109375 -23.4375 C 7.503906 -21.71875 7.203125 -19.789062 7.203125 -17.65625 C 7.203125 -15.4375 7.515625 -13.453125 8.140625 -11.703125 C 8.773438 -9.953125 9.679688 -8.460938 10.859375 -7.234375 C 12.035156 -6.015625 13.460938 -5.082031 15.140625 -4.4375 C 16.816406 -3.800781 18.703125 -3.484375 20.796875 -3.484375 C 22.441406 -3.484375 23.898438 -3.664062 25.171875 -4.03125 C 26.441406 -4.40625 27.6875 -4.921875 28.90625 -5.578125 L 28.90625 -13.34375 L 23.40625 -13.34375 C 23.09375 -13.34375 22.84375 -13.429688 22.65625 -13.609375 C 22.46875 -13.796875 22.375 -14.019531 22.375 -14.28125 L 22.375 -17 Z M 33.21875 -17 "/></g></g></g><g fill="#222223" fill-opacity="1"><g transform="translate(114.980761, 231.33431)"><g><path d="M 14.3125 -18.234375 C 15.6875 -18.234375 16.90625 -18.398438 17.96875 -18.734375 C 19.03125 -19.066406 19.914062 -19.539062 20.625 -20.15625 C 21.34375 -20.78125 21.882812 -21.519531 22.25 -22.375 C 22.613281 -23.226562 22.796875 -24.171875 22.796875 -25.203125 C 22.796875 -27.304688 22.101562 -28.890625 20.71875 -29.953125 C 19.332031 -31.023438 17.257812 -31.5625 14.5 -31.5625 L 9.28125 -31.5625 L 9.28125 -18.234375 Z M 30.640625 0 L 26.390625 0 C 25.515625 0 24.875 -0.335938 24.46875 -1.015625 L 15.296875 -13.640625 C 15.015625 -14.035156 14.710938 -14.316406 14.390625 -14.484375 C 14.066406 -14.660156 13.570312 -14.75 12.90625 -14.75 L 9.28125 -14.75 L 9.28125 0 L 4.515625 0 L 4.515625 -35.34375 L 14.5 -35.34375 C 16.738281 -35.34375 18.671875 -35.113281 20.296875 -34.65625 C 21.921875 -34.207031 23.265625 -33.554688 24.328125 -32.703125 C 25.390625 -31.847656 26.175781 -30.816406 26.6875 -29.609375 C 27.195312 -28.398438 27.453125 -27.046875 27.453125 -25.546875 C 27.453125 -24.296875 27.253906 -23.128906 26.859375 -22.046875 C 26.460938 -20.960938 25.890625 -19.988281 25.140625 -19.125 C 24.390625 -18.257812 23.476562 -17.519531 22.40625 -16.90625 C 21.332031 -16.300781 20.113281 -15.84375 18.75 -15.53125 C 19.351562 -15.1875 19.878906 -14.6875 20.328125 -14.03125 Z M 30.640625 0 "/></g></g></g><g fill="#222223" fill-opacity="1"><g transform="translate(150.813206, 231.33431)"><g><path d="M 23.28125 -13.125 L 17.734375 -27.5 C 17.566406 -27.925781 17.390625 -28.421875 17.203125 -28.984375 C 17.023438 -29.554688 16.859375 -30.164062 16.703125 -30.8125 C 16.359375 -29.476562 16.003906 -28.363281 15.640625 -27.46875 L 10.09375 -13.125 Z M 33.25 0 L 29.546875 0 C 29.117188 0 28.769531 -0.101562 28.5 -0.3125 C 28.238281 -0.53125 28.046875 -0.804688 27.921875 -1.140625 L 24.609375 -9.671875 L 8.75 -9.671875 L 5.453125 -1.140625 C 5.347656 -0.835938 5.15625 -0.570312 4.875 -0.34375 C 4.601562 -0.113281 4.257812 0 3.84375 0 L 0.140625 0 L 14.28125 -35.34375 L 19.109375 -35.34375 Z M 33.25 0 "/></g></g></g><g fill="#222223" fill-opacity="1"><g transform="translate(189.136319, 231.33431)"><g><path d="M 29.328125 -7.296875 C 29.585938 -7.296875 29.816406 -7.191406 30.015625 -6.984375 L 31.921875 -4.9375 C 30.472656 -3.257812 28.710938 -1.953125 26.640625 -1.015625 C 24.578125 -0.078125 22.082031 0.390625 19.15625 0.390625 C 16.625 0.390625 14.320312 -0.046875 12.25 -0.921875 C 10.1875 -1.804688 8.421875 -3.039062 6.953125 -4.625 C 5.492188 -6.207031 4.359375 -8.109375 3.546875 -10.328125 C 2.742188 -12.546875 2.34375 -14.988281 2.34375 -17.65625 C 2.34375 -20.320312 2.757812 -22.765625 3.59375 -24.984375 C 4.4375 -27.203125 5.617188 -29.109375 7.140625 -30.703125 C 8.660156 -32.296875 10.476562 -33.53125 12.59375 -34.40625 C 14.71875 -35.289062 17.0625 -35.734375 19.625 -35.734375 C 22.144531 -35.734375 24.363281 -35.332031 26.28125 -34.53125 C 28.207031 -33.726562 29.90625 -32.632812 31.375 -31.25 L 29.796875 -29.046875 C 29.691406 -28.890625 29.5625 -28.753906 29.40625 -28.640625 C 29.25 -28.535156 29.039062 -28.484375 28.78125 -28.484375 C 28.488281 -28.484375 28.128906 -28.644531 27.703125 -28.96875 C 27.273438 -29.289062 26.710938 -29.648438 26.015625 -30.046875 C 25.328125 -30.441406 24.460938 -30.796875 23.421875 -31.109375 C 22.390625 -31.429688 21.117188 -31.59375 19.609375 -31.59375 C 17.785156 -31.59375 16.113281 -31.273438 14.59375 -30.640625 C 13.082031 -30.015625 11.78125 -29.097656 10.6875 -27.890625 C 9.59375 -26.691406 8.742188 -25.226562 8.140625 -23.5 C 7.535156 -21.78125 7.234375 -19.832031 7.234375 -17.65625 C 7.234375 -15.457031 7.546875 -13.492188 8.171875 -11.765625 C 8.804688 -10.035156 9.671875 -8.570312 10.765625 -7.375 C 11.859375 -6.1875 13.148438 -5.28125 14.640625 -4.65625 C 16.128906 -4.03125 17.734375 -3.71875 19.453125 -3.71875 C 20.503906 -3.71875 21.453125 -3.78125 22.296875 -3.90625 C 23.148438 -4.03125 23.929688 -4.222656 24.640625 -4.484375 C 25.359375 -4.753906 26.023438 -5.085938 26.640625 -5.484375 C 27.265625 -5.890625 27.878906 -6.375 28.484375 -6.9375 C 28.765625 -7.175781 29.046875 -7.296875 29.328125 -7.296875 Z M 29.328125 -7.296875 "/></g></g></g><g fill="#222223" fill-opacity="1"><g transform="translate(227.015559, 231.33431)"><g><path d="M 26.3125 -3.890625 L 26.296875 0 L 4.515625 0 L 4.515625 -35.34375 L 26.296875 -35.34375 L 26.296875 -31.453125 L 9.296875 -31.453125 L 9.296875 -19.703125 L 23.0625 -19.703125 L 23.0625 -15.953125 L 9.296875 -15.953125 L 9.296875 -3.890625 Z M 26.3125 -3.890625 "/></g></g></g><g fill="#000000" fill-opacity="1"><g transform="translate(142.552597, 260.469504)"><g><path d="M 9.609375 -1.421875 L 9.59375 0 L 1.640625 0 L 1.640625 -12.890625 L 9.59375 -12.890625 L 9.59375 -11.46875 L 3.390625 -11.46875 L 3.390625 -7.1875 L 8.421875 -7.1875 L 8.421875 -5.828125 L 3.390625 -5.828125 L 3.390625 -1.421875 Z M 9.609375 -1.421875 "/></g></g></g><g fill="#000000" fill-opacity="1"><g transform="translate(157.699666, 260.469504)"><g><path d="M 8.5 -4.78125 L 6.46875 -10.03125 C 6.40625 -10.1875 6.34375 -10.367188 6.28125 -10.578125 C 6.21875 -10.785156 6.15625 -11.003906 6.09375 -11.234375 C 5.96875 -10.753906 5.835938 -10.351562 5.703125 -10.03125 L 3.6875 -4.78125 Z M 12.125 0 L 10.78125 0 C 10.625 0 10.5 -0.0351562 10.40625 -0.109375 C 10.3125 -0.191406 10.238281 -0.289062 10.1875 -0.40625 L 8.984375 -3.53125 L 3.1875 -3.53125 L 1.984375 -0.40625 C 1.953125 -0.300781 1.882812 -0.207031 1.78125 -0.125 C 1.675781 -0.0390625 1.550781 0 1.40625 0 L 0.046875 0 L 5.21875 -12.890625 L 6.96875 -12.890625 Z M 12.125 0 "/></g></g></g><g fill="#000000" fill-opacity="1"><g transform="translate(174.637746, 260.469504)"><g><path d="M 10.375 -11.4375 L 6.1875 -11.4375 L 6.1875 0 L 4.453125 0 L 4.453125 -11.4375 L 0.265625 -11.4375 L 0.265625 -12.890625 L 10.375 -12.890625 Z M 10.375 -11.4375 "/></g></g></g><g fill="#000000" fill-opacity="1"><g transform="translate(190.018824, 260.469504)"><g><path d="M 9.609375 -1.421875 L 9.59375 0 L 1.640625 0 L 1.640625 -12.890625 L 9.59375 -12.890625 L 9.59375 -11.46875 L 3.390625 -11.46875 L 3.390625 -7.1875 L 8.421875 -7.1875 L 8.421875 -5.828125 L 3.390625 -5.828125 L 3.390625 -1.421875 Z M 9.609375 -1.421875 "/></g></g></g><g fill="#000000" fill-opacity="1"><g transform="translate(205.165892, 260.469504)"><g><path d="M 5.21875 -6.65625 C 5.71875 -6.65625 6.160156 -6.710938 6.546875 -6.828125 C 6.941406 -6.953125 7.269531 -7.125 7.53125 -7.34375 C 7.789062 -7.570312 7.984375 -7.84375 8.109375 -8.15625 C 8.242188 -8.46875 8.3125 -8.816406 8.3125 -9.203125 C 8.3125 -9.960938 8.054688 -10.535156 7.546875 -10.921875 C 7.046875 -11.316406 6.296875 -11.515625 5.296875 -11.515625 L 3.390625 -11.515625 L 3.390625 -6.65625 Z M 11.171875 0 L 9.625 0 C 9.3125 0 9.078125 -0.125 8.921875 -0.375 L 5.578125 -4.984375 C 5.472656 -5.117188 5.363281 -5.21875 5.25 -5.28125 C 5.132812 -5.34375 4.953125 -5.375 4.703125 -5.375 L 3.390625 -5.375 L 3.390625 0 L 1.640625 0 L 1.640625 -12.890625 L 5.296875 -12.890625 C 6.109375 -12.890625 6.8125 -12.804688 7.40625 -12.640625 C 8 -12.484375 8.488281 -12.25 8.875 -11.9375 C 9.257812 -11.625 9.546875 -11.242188 9.734375 -10.796875 C 9.921875 -10.359375 10.015625 -9.867188 10.015625 -9.328125 C 10.015625 -8.867188 9.941406 -8.441406 9.796875 -8.046875 C 9.648438 -7.648438 9.441406 -7.289062 9.171875 -6.96875 C 8.898438 -6.65625 8.566406 -6.390625 8.171875 -6.171875 C 7.785156 -5.953125 7.34375 -5.785156 6.84375 -5.671875 C 7.0625 -5.546875 7.253906 -5.363281 7.421875 -5.125 Z M 11.171875 0 "/></g></g></g><g fill="#000000" fill-opacity="1"><g transform="translate(221.194966, 260.469504)"><g><path d="M 6.484375 -5.140625 L 6.484375 0 L 4.75 0 L 4.75 -5.140625 L 0.015625 -12.890625 L 1.546875 -12.890625 C 1.703125 -12.890625 1.820312 -12.851562 1.90625 -12.78125 C 2 -12.707031 2.082031 -12.609375 2.15625 -12.484375 L 5.109375 -7.484375 C 5.210938 -7.265625 5.304688 -7.0625 5.390625 -6.875 C 5.484375 -6.695312 5.566406 -6.519531 5.640625 -6.34375 C 5.703125 -6.519531 5.773438 -6.695312 5.859375 -6.875 C 5.941406 -7.0625 6.035156 -7.265625 6.140625 -7.484375 L 9.078125 -12.484375 C 9.128906 -12.585938 9.203125 -12.679688 9.296875 -12.765625 C 9.398438 -12.847656 9.523438 -12.890625 9.671875 -12.890625 L 11.21875 -12.890625 Z M 6.484375 -5.140625 "/></g></g></g></svg>