<svg xmlns="http://www.w3.org/2000/svg" xmlns:xlink="http://www.w3.org/1999/xlink" width="500" zoomAndPan="magnify" viewBox="0 0 375 374.999991" height="500" preserveAspectRatio="xMidYMid meet" version="1.0"><defs><g/><clipPath id="73e1fdd779"><path d="M 168.070312 109.71875 L 255.070312 109.71875 L 255.070312 188.46875 L 168.070312 188.46875 Z M 168.070312 109.71875 " clip-rule="nonzero"/></clipPath></defs><g clip-path="url(#73e1fdd779)"><path fill="#05b0fc" d="M 232.449219 118.054688 L 213.761719 118.054688 L 213.761719 111.824219 C 213.761719 111.550781 213.707031 111.285156 213.601562 111.03125 C 213.496094 110.777344 213.347656 110.550781 213.152344 110.355469 C 212.957031 110.164062 212.730469 110.011719 212.476562 109.90625 C 212.222656 109.800781 211.957031 109.75 211.683594 109.75 C 211.40625 109.75 211.144531 109.800781 210.886719 109.90625 C 210.632812 110.011719 210.410156 110.164062 210.214844 110.355469 C 210.019531 110.550781 209.871094 110.777344 209.765625 111.03125 C 209.660156 111.285156 209.605469 111.550781 209.605469 111.824219 L 209.605469 118.054688 L 190.914062 118.054688 C 190.234375 118.058594 189.558594 118.125 188.890625 118.257812 C 188.222656 118.390625 187.574219 118.585938 186.945312 118.847656 C 186.3125 119.109375 185.714844 119.429688 185.148438 119.808594 C 184.582031 120.1875 184.058594 120.617188 183.578125 121.101562 C 183.09375 121.582031 182.664062 122.105469 182.285156 122.671875 C 181.90625 123.238281 181.585938 123.839844 181.324219 124.46875 C 181.0625 125.097656 180.867188 125.746094 180.734375 126.414062 C 180.601562 127.082031 180.53125 127.757812 180.53125 128.441406 L 180.53125 165.820312 C 180.53125 166.503906 180.601562 167.175781 180.734375 167.847656 C 180.867188 168.515625 181.0625 169.164062 181.324219 169.792969 C 181.585938 170.421875 181.90625 171.019531 182.285156 171.585938 C 182.664062 172.152344 183.09375 172.679688 183.578125 173.160156 C 184.058594 173.640625 184.582031 174.074219 185.148438 174.453125 C 185.714844 174.832031 186.3125 175.148438 186.945312 175.410156 C 187.574219 175.671875 188.222656 175.871094 188.890625 176.003906 C 189.558594 176.136719 190.234375 176.203125 190.914062 176.203125 L 202.265625 176.203125 L 209.957031 187.738281 C 210.050781 187.882812 210.160156 188.011719 210.289062 188.125 C 210.414062 188.242188 210.550781 188.339844 210.703125 188.417969 C 210.855469 188.5 211.011719 188.5625 211.179688 188.601562 C 211.34375 188.644531 211.511719 188.664062 211.683594 188.664062 C 211.855469 188.664062 212.023438 188.644531 212.1875 188.601562 C 212.355469 188.5625 212.511719 188.5 212.664062 188.417969 C 212.8125 188.339844 212.953125 188.242188 213.078125 188.125 C 213.207031 188.011719 213.316406 187.882812 213.410156 187.738281 L 221.101562 176.203125 L 232.449219 176.203125 C 233.132812 176.203125 233.808594 176.136719 234.476562 176.003906 C 235.144531 175.871094 235.792969 175.671875 236.421875 175.410156 C 237.050781 175.148438 237.652344 174.832031 238.21875 174.453125 C 238.785156 174.074219 239.308594 173.640625 239.789062 173.160156 C 240.273438 172.679688 240.703125 172.152344 241.082031 171.585938 C 241.460938 171.019531 241.78125 170.421875 242.042969 169.792969 C 242.300781 169.164062 242.5 168.515625 242.632812 167.847656 C 242.765625 167.175781 242.832031 166.503906 242.835938 165.820312 L 242.835938 128.441406 C 242.832031 127.757812 242.765625 127.082031 242.632812 126.414062 C 242.5 125.746094 242.300781 125.097656 242.042969 124.46875 C 241.78125 123.839844 241.460938 123.238281 241.082031 122.671875 C 240.703125 122.105469 240.273438 121.582031 239.789062 121.101562 C 239.308594 120.617188 238.785156 120.1875 238.21875 119.808594 C 237.652344 119.429688 237.050781 119.109375 236.421875 118.847656 C 235.792969 118.585938 235.144531 118.390625 234.476562 118.257812 C 233.808594 118.125 233.132812 118.058594 232.449219 118.054688 Z M 238.679688 165.820312 C 238.679688 166.230469 238.640625 166.632812 238.558594 167.035156 C 238.480469 167.4375 238.363281 167.828125 238.203125 168.203125 C 238.046875 168.582031 237.855469 168.941406 237.628906 169.28125 C 237.402344 169.621094 237.144531 169.933594 236.855469 170.222656 C 236.566406 170.511719 236.25 170.773438 235.910156 171 C 235.570312 171.226562 235.210938 171.417969 234.832031 171.574219 C 234.457031 171.730469 234.066406 171.851562 233.664062 171.929688 C 233.265625 172.011719 232.859375 172.050781 232.449219 172.050781 L 219.988281 172.050781 C 219.644531 172.050781 219.316406 172.132812 219.011719 172.296875 C 218.703125 172.460938 218.457031 172.6875 218.261719 172.976562 L 211.683594 182.84375 L 205.105469 172.976562 C 204.910156 172.6875 204.660156 172.460938 204.355469 172.296875 C 204.050781 172.132812 203.722656 172.050781 203.375 172.050781 L 190.914062 172.050781 C 190.507812 172.050781 190.101562 172.011719 189.699219 171.929688 C 189.300781 171.851562 188.910156 171.730469 188.53125 171.574219 C 188.15625 171.417969 187.796875 171.226562 187.457031 171 C 187.117188 170.773438 186.800781 170.511719 186.511719 170.222656 C 186.222656 169.933594 185.964844 169.621094 185.738281 169.28125 C 185.511719 168.941406 185.320312 168.582031 185.160156 168.203125 C 185.003906 167.828125 184.886719 167.4375 184.804688 167.035156 C 184.726562 166.632812 184.6875 166.230469 184.6875 165.820312 L 184.6875 159.589844 L 238.679688 159.589844 Z M 238.679688 155.4375 L 184.6875 155.4375 L 184.6875 128.441406 C 184.6875 128.03125 184.726562 127.625 184.804688 127.226562 C 184.886719 126.824219 185.003906 126.433594 185.160156 126.054688 C 185.320312 125.679688 185.511719 125.320312 185.738281 124.980469 C 185.964844 124.640625 186.222656 124.324219 186.511719 124.035156 C 186.800781 123.746094 187.117188 123.488281 187.457031 123.261719 C 187.796875 123.035156 188.15625 122.84375 188.53125 122.6875 C 188.910156 122.527344 189.300781 122.410156 189.699219 122.332031 C 190.101562 122.25 190.507812 122.210938 190.914062 122.210938 L 232.449219 122.210938 C 232.859375 122.210938 233.265625 122.25 233.664062 122.332031 C 234.066406 122.410156 234.457031 122.527344 234.832031 122.6875 C 235.210938 122.84375 235.570312 123.035156 235.910156 123.261719 C 236.25 123.488281 236.566406 123.746094 236.855469 124.035156 C 237.144531 124.324219 237.402344 124.640625 237.628906 124.980469 C 237.855469 125.320312 238.046875 125.679688 238.203125 126.054688 C 238.363281 126.433594 238.480469 126.824219 238.558594 127.226562 C 238.640625 127.625 238.679688 128.03125 238.679688 128.441406 Z M 203.375 140.898438 C 203.375 141.171875 203.351562 141.441406 203.296875 141.710938 C 203.242188 141.976562 203.164062 142.238281 203.058594 142.488281 C 202.957031 142.742188 202.828125 142.980469 202.675781 143.207031 C 202.523438 143.433594 202.351562 143.644531 202.160156 143.835938 C 201.96875 144.03125 201.757812 144.203125 201.53125 144.355469 C 201.304688 144.503906 201.0625 144.632812 200.8125 144.738281 C 200.558594 144.839844 200.300781 144.921875 200.03125 144.972656 C 199.765625 145.027344 199.496094 145.054688 199.222656 145.054688 C 198.949219 145.054688 198.679688 145.027344 198.414062 144.972656 C 198.144531 144.921875 197.886719 144.839844 197.632812 144.738281 C 197.382812 144.632812 197.140625 144.503906 196.914062 144.355469 C 196.6875 144.203125 196.480469 144.03125 196.285156 143.835938 C 196.09375 143.644531 195.921875 143.433594 195.769531 143.207031 C 195.617188 142.980469 195.488281 142.742188 195.386719 142.488281 C 195.28125 142.238281 195.203125 141.976562 195.148438 141.710938 C 195.097656 141.441406 195.070312 141.171875 195.070312 140.898438 C 195.070312 140.628906 195.097656 140.355469 195.148438 140.089844 C 195.203125 139.824219 195.28125 139.5625 195.386719 139.3125 C 195.488281 139.058594 195.617188 138.820312 195.769531 138.59375 C 195.921875 138.367188 196.09375 138.15625 196.285156 137.964844 C 196.480469 137.769531 196.6875 137.597656 196.914062 137.445312 C 197.140625 137.296875 197.382812 137.167969 197.632812 137.0625 C 197.886719 136.957031 198.144531 136.878906 198.414062 136.828125 C 198.679688 136.773438 198.949219 136.746094 199.222656 136.746094 C 199.496094 136.746094 199.765625 136.773438 200.03125 136.828125 C 200.300781 136.878906 200.558594 136.957031 200.8125 137.0625 C 201.0625 137.167969 201.304688 137.296875 201.53125 137.445312 C 201.757812 137.597656 201.96875 137.769531 202.160156 137.964844 C 202.351562 138.15625 202.523438 138.367188 202.675781 138.59375 C 202.828125 138.820312 202.957031 139.058594 203.058594 139.3125 C 203.164062 139.5625 203.242188 139.824219 203.296875 140.089844 C 203.351562 140.355469 203.375 140.628906 203.375 140.898438 Z M 228.296875 140.898438 C 228.296875 141.171875 228.269531 141.441406 228.21875 141.710938 C 228.164062 141.976562 228.085938 142.238281 227.980469 142.488281 C 227.875 142.742188 227.75 142.980469 227.597656 143.207031 C 227.445312 143.433594 227.273438 143.644531 227.082031 143.835938 C 226.886719 144.03125 226.679688 144.203125 226.449219 144.355469 C 226.222656 144.503906 225.984375 144.632812 225.734375 144.738281 C 225.480469 144.839844 225.222656 144.921875 224.953125 144.972656 C 224.6875 145.027344 224.417969 145.054688 224.144531 145.054688 C 223.871094 145.054688 223.601562 145.027344 223.332031 144.972656 C 223.066406 144.921875 222.804688 144.839844 222.554688 144.738281 C 222.300781 144.632812 222.0625 144.503906 221.835938 144.355469 C 221.609375 144.203125 221.398438 144.03125 221.207031 143.835938 C 221.015625 143.644531 220.839844 143.433594 220.691406 143.207031 C 220.539062 142.980469 220.410156 142.742188 220.304688 142.488281 C 220.203125 142.238281 220.125 141.976562 220.070312 141.710938 C 220.015625 141.441406 219.988281 141.171875 219.988281 140.898438 C 219.988281 140.628906 220.015625 140.355469 220.070312 140.089844 C 220.125 139.824219 220.203125 139.5625 220.304688 139.3125 C 220.410156 139.058594 220.539062 138.820312 220.691406 138.59375 C 220.839844 138.367188 221.015625 138.15625 221.207031 137.964844 C 221.398438 137.769531 221.609375 137.597656 221.835938 137.445312 C 222.0625 137.296875 222.300781 137.167969 222.554688 137.0625 C 222.804688 136.957031 223.066406 136.878906 223.332031 136.828125 C 223.601562 136.773438 223.871094 136.746094 224.144531 136.746094 C 224.417969 136.746094 224.6875 136.773438 224.953125 136.828125 C 225.222656 136.878906 225.480469 136.957031 225.734375 137.0625 C 225.984375 137.167969 226.222656 137.296875 226.449219 137.445312 C 226.679688 137.597656 226.886719 137.769531 227.082031 137.964844 C 227.273438 138.15625 227.445312 138.367188 227.597656 138.59375 C 227.75 138.820312 227.875 139.058594 227.980469 139.3125 C 228.085938 139.5625 228.164062 139.824219 228.21875 140.089844 C 228.269531 140.355469 228.296875 140.628906 228.296875 140.898438 Z M 172.226562 132.59375 L 172.226562 149.207031 C 172.226562 149.480469 172.171875 149.746094 172.066406 150 C 171.960938 150.257812 171.8125 150.480469 171.617188 150.675781 C 171.421875 150.871094 171.199219 151.019531 170.945312 151.125 C 170.6875 151.230469 170.425781 151.285156 170.148438 151.285156 C 169.875 151.285156 169.609375 151.230469 169.355469 151.125 C 169.097656 151.019531 168.875 150.871094 168.679688 150.675781 C 168.484375 150.480469 168.335938 150.257812 168.230469 150 C 168.125 149.746094 168.070312 149.480469 168.070312 149.207031 L 168.070312 132.59375 C 168.070312 132.316406 168.125 132.054688 168.230469 131.796875 C 168.335938 131.542969 168.484375 131.320312 168.679688 131.125 C 168.875 130.929688 169.097656 130.78125 169.355469 130.675781 C 169.609375 130.570312 169.875 130.515625 170.148438 130.515625 C 170.425781 130.515625 170.6875 130.570312 170.945312 130.675781 C 171.199219 130.78125 171.421875 130.929688 171.617188 131.125 C 171.8125 131.320312 171.960938 131.542969 172.066406 131.796875 C 172.171875 132.054688 172.226562 132.316406 172.226562 132.59375 Z M 255.292969 132.59375 L 255.292969 149.207031 C 255.292969 149.480469 255.242188 149.746094 255.136719 150 C 255.03125 150.257812 254.882812 150.480469 254.6875 150.675781 C 254.492188 150.871094 254.265625 151.019531 254.011719 151.125 C 253.757812 151.230469 253.492188 151.285156 253.21875 151.285156 C 252.941406 151.285156 252.675781 151.230469 252.421875 151.125 C 252.167969 151.019531 251.945312 150.871094 251.75 150.675781 C 251.554688 150.480469 251.40625 150.257812 251.300781 150 C 251.195312 149.746094 251.140625 149.480469 251.140625 149.207031 L 251.140625 132.59375 C 251.140625 132.316406 251.195312 132.054688 251.300781 131.796875 C 251.40625 131.542969 251.554688 131.320312 251.75 131.125 C 251.945312 130.929688 252.167969 130.78125 252.421875 130.675781 C 252.675781 130.570312 252.941406 130.515625 253.21875 130.515625 C 253.492188 130.515625 253.757812 130.570312 254.011719 130.675781 C 254.265625 130.78125 254.492188 130.929688 254.6875 131.125 C 254.882812 131.320312 255.03125 131.542969 255.136719 131.796875 C 255.242188 132.054688 255.292969 132.316406 255.292969 132.59375 Z M 255.292969 132.59375 " fill-opacity="1" fill-rule="nonzero"/></g><g fill="#000000" fill-opacity="1"><g transform="translate(90.267332, 244.19726)"><g><path d="M 44.28125 -21.484375 C 44.28125 -17.035156 43.550781 -13.160156 42.09375 -9.859375 C 40.632812 -6.566406 38.394531 -4 35.375 -2.15625 C 32.351562 -0.320312 28.519531 0.59375 23.875 0.59375 C 19.238281 0.59375 15.410156 -0.320312 12.390625 -2.15625 C 9.367188 -4 7.128906 -6.578125 5.671875 -9.890625 C 4.210938 -13.210938 3.484375 -17.097656 3.484375 -21.546875 C 3.484375 -25.984375 4.210938 -29.84375 5.671875 -33.125 C 7.128906 -36.40625 9.367188 -38.953125 12.390625 -40.765625 C 15.410156 -42.585938 19.257812 -43.5 23.9375 -43.5 C 28.582031 -43.5 32.40625 -42.585938 35.40625 -40.765625 C 38.40625 -38.953125 40.632812 -36.394531 42.09375 -33.09375 C 43.550781 -29.789062 44.28125 -25.921875 44.28125 -21.484375 Z M 13.015625 -21.484375 C 13.015625 -17.003906 13.875 -13.472656 15.59375 -10.890625 C 17.320312 -8.304688 20.082031 -7.015625 23.875 -7.015625 C 27.757812 -7.015625 30.539062 -8.304688 32.21875 -10.890625 C 33.894531 -13.472656 34.734375 -17.003906 34.734375 -21.484375 C 34.734375 -25.960938 33.894531 -29.488281 32.21875 -32.0625 C 30.539062 -34.644531 27.78125 -35.9375 23.9375 -35.9375 C 20.101562 -35.9375 17.320312 -34.644531 15.59375 -32.0625 C 13.875 -29.488281 13.015625 -25.960938 13.015625 -21.484375 Z M 13.015625 -21.484375 "/></g></g></g><g fill="#000000" fill-opacity="1"><g transform="translate(138.027289, 244.19726)"><g><path d="M 22.984375 -33.359375 C 23.421875 -33.359375 23.9375 -33.335938 24.53125 -33.296875 C 25.132812 -33.253906 25.617188 -33.195312 25.984375 -33.125 L 25.3125 -24.71875 C 25 -24.800781 24.582031 -24.867188 24.0625 -24.921875 C 23.539062 -24.984375 23.082031 -25.015625 22.6875 -25.015625 C 21.164062 -25.015625 19.703125 -24.742188 18.296875 -24.203125 C 16.898438 -23.671875 15.769531 -22.800781 14.90625 -21.59375 C 14.050781 -20.394531 13.625 -18.757812 13.625 -16.6875 L 13.625 0 L 4.6875 0 L 4.6875 -32.765625 L 11.453125 -32.765625 L 12.78125 -27.234375 L 13.203125 -27.234375 C 14.160156 -28.921875 15.476562 -30.363281 17.15625 -31.5625 C 18.84375 -32.757812 20.785156 -33.359375 22.984375 -33.359375 Z M 22.984375 -33.359375 "/></g></g></g><g fill="#000000" fill-opacity="1"><g transform="translate(165.267259, 244.19726)"><g><path d="M 18.125 -33.421875 C 22.519531 -33.421875 25.882812 -32.46875 28.21875 -30.5625 C 30.5625 -28.664062 31.734375 -25.757812 31.734375 -21.84375 L 31.734375 0 L 25.5 0 L 23.765625 -4.4375 L 23.515625 -4.4375 C 22.117188 -2.675781 20.640625 -1.394531 19.078125 -0.59375 C 17.515625 0.195312 15.375 0.59375 12.65625 0.59375 C 9.738281 0.59375 7.316406 -0.242188 5.390625 -1.921875 C 3.472656 -3.597656 2.515625 -6.21875 2.515625 -9.78125 C 2.515625 -13.257812 3.734375 -15.816406 6.171875 -17.453125 C 8.617188 -19.097656 12.28125 -20.019531 17.15625 -20.21875 L 22.859375 -20.40625 L 22.859375 -21.84375 C 22.859375 -23.5625 22.40625 -24.816406 21.5 -25.609375 C 20.601562 -26.410156 19.359375 -26.8125 17.765625 -26.8125 C 16.160156 -26.8125 14.597656 -26.582031 13.078125 -26.125 C 11.554688 -25.664062 10.035156 -25.097656 8.515625 -24.421875 L 5.578125 -30.484375 C 7.296875 -31.359375 9.234375 -32.066406 11.390625 -32.609375 C 13.554688 -33.148438 15.800781 -33.421875 18.125 -33.421875 Z M 22.859375 -15.1875 L 19.375 -15.0625 C 16.5 -14.976562 14.5 -14.457031 13.375 -13.5 C 12.257812 -12.539062 11.703125 -11.28125 11.703125 -9.71875 C 11.703125 -8.363281 12.097656 -7.394531 12.890625 -6.8125 C 13.691406 -6.226562 14.734375 -5.9375 16.015625 -5.9375 C 17.941406 -5.9375 19.5625 -6.503906 20.875 -7.640625 C 22.195312 -8.785156 22.859375 -10.398438 22.859375 -12.484375 Z M 22.859375 -15.1875 "/></g></g></g><g fill="#000000" fill-opacity="1"><g transform="translate(201.507228, 244.19726)"><g><path d="M 13.625 0 L 4.6875 0 L 4.6875 -45.59375 L 13.625 -45.59375 Z M 13.625 0 "/></g></g></g><g fill="#000000" fill-opacity="1"><g transform="translate(219.807211, 244.19726)"><g><path d="M 3.421875 -4.203125 C 3.421875 -6.035156 3.921875 -7.320312 4.921875 -8.0625 C 5.921875 -8.8125 7.140625 -9.1875 8.578125 -9.1875 C 9.984375 -9.1875 11.1875 -8.8125 12.1875 -8.0625 C 13.1875 -7.320312 13.6875 -6.035156 13.6875 -4.203125 C 13.6875 -2.441406 13.1875 -1.171875 12.1875 -0.390625 C 11.1875 0.390625 9.984375 0.78125 8.578125 0.78125 C 7.140625 0.78125 5.921875 0.390625 4.921875 -0.390625 C 3.921875 -1.171875 3.421875 -2.441406 3.421875 -4.203125 Z M 3.421875 -4.203125 "/></g></g></g><g fill="#000000" fill-opacity="1"><g transform="translate(236.90719, 244.19726)"><g><path d="M 18.125 -33.421875 C 22.519531 -33.421875 25.882812 -32.46875 28.21875 -30.5625 C 30.5625 -28.664062 31.734375 -25.757812 31.734375 -21.84375 L 31.734375 0 L 25.5 0 L 23.765625 -4.4375 L 23.515625 -4.4375 C 22.117188 -2.675781 20.640625 -1.394531 19.078125 -0.59375 C 17.515625 0.195312 15.375 0.59375 12.65625 0.59375 C 9.738281 0.59375 7.316406 -0.242188 5.390625 -1.921875 C 3.472656 -3.597656 2.515625 -6.21875 2.515625 -9.78125 C 2.515625 -13.257812 3.734375 -15.816406 6.171875 -17.453125 C 8.617188 -19.097656 12.28125 -20.019531 17.15625 -20.21875 L 22.859375 -20.40625 L 22.859375 -21.84375 C 22.859375 -23.5625 22.40625 -24.816406 21.5 -25.609375 C 20.601562 -26.410156 19.359375 -26.8125 17.765625 -26.8125 C 16.160156 -26.8125 14.597656 -26.582031 13.078125 -26.125 C 11.554688 -25.664062 10.035156 -25.097656 8.515625 -24.421875 L 5.578125 -30.484375 C 7.296875 -31.359375 9.234375 -32.066406 11.390625 -32.609375 C 13.554688 -33.148438 15.800781 -33.421875 18.125 -33.421875 Z M 22.859375 -15.1875 L 19.375 -15.0625 C 16.5 -14.976562 14.5 -14.457031 13.375 -13.5 C 12.257812 -12.539062 11.703125 -11.28125 11.703125 -9.71875 C 11.703125 -8.363281 12.097656 -7.394531 12.890625 -6.8125 C 13.691406 -6.226562 14.734375 -5.9375 16.015625 -5.9375 C 17.941406 -5.9375 19.5625 -6.503906 20.875 -7.640625 C 22.195312 -8.785156 22.859375 -10.398438 22.859375 -12.484375 Z M 22.859375 -15.1875 "/></g></g></g><g fill="#000000" fill-opacity="1"><g transform="translate(273.147159, 244.19726)"><g><path d="M 9.1875 -45.59375 C 10.5 -45.59375 11.632812 -45.28125 12.59375 -44.65625 C 13.5625 -44.039062 14.046875 -42.894531 14.046875 -41.21875 C 14.046875 -39.582031 13.5625 -38.441406 12.59375 -37.796875 C 11.632812 -37.160156 10.5 -36.84375 9.1875 -36.84375 C 7.820312 -36.84375 6.664062 -37.160156 5.71875 -37.796875 C 4.78125 -38.441406 4.3125 -39.582031 4.3125 -41.21875 C 4.3125 -42.894531 4.78125 -44.039062 5.71875 -44.65625 C 6.664062 -45.28125 7.820312 -45.59375 9.1875 -45.59375 Z M 13.625 -32.765625 L 13.625 0 L 4.6875 0 L 4.6875 -32.765625 Z M 13.625 -32.765625 "/></g></g></g></svg>