<svg xmlns="http://www.w3.org/2000/svg" xmlns:xlink="http://www.w3.org/1999/xlink" width="500" zoomAndPan="magnify" viewBox="0 0 375 374.999991" height="500" preserveAspectRatio="xMidYMid meet" version="1.0"><defs><g/><clipPath id="c613489696"><path d="M 21.300781 148.011719 L 108.300781 148.011719 L 108.300781 226.761719 L 21.300781 226.761719 Z M 21.300781 148.011719 " clip-rule="nonzero"/></clipPath></defs><g clip-path="url(#c613489696)"><path fill="#05b0fc" d="M 85.679688 156.347656 L 66.988281 156.347656 L 66.988281 150.117188 C 66.988281 149.839844 66.933594 149.578125 66.828125 149.320312 C 66.722656 149.066406 66.574219 148.84375 66.378906 148.648438 C 66.183594 148.453125 65.960938 148.304688 65.707031 148.199219 C 65.449219 148.09375 65.1875 148.039062 64.910156 148.039062 C 64.636719 148.039062 64.371094 148.09375 64.117188 148.199219 C 63.863281 148.304688 63.636719 148.453125 63.441406 148.648438 C 63.246094 148.84375 63.097656 149.066406 62.992188 149.320312 C 62.886719 149.578125 62.832031 149.839844 62.832031 150.117188 L 62.832031 156.347656 L 44.144531 156.347656 C 43.460938 156.347656 42.785156 156.414062 42.117188 156.546875 C 41.449219 156.679688 40.800781 156.878906 40.171875 157.140625 C 39.542969 157.402344 38.945312 157.722656 38.375 158.101562 C 37.808594 158.480469 37.285156 158.910156 36.804688 159.390625 C 36.320312 159.875 35.890625 160.398438 35.511719 160.964844 C 35.132812 161.53125 34.8125 162.128906 34.554688 162.757812 C 34.292969 163.386719 34.09375 164.039062 33.960938 164.707031 C 33.828125 165.375 33.761719 166.050781 33.757812 166.730469 L 33.757812 204.113281 C 33.761719 204.792969 33.828125 205.46875 33.960938 206.136719 C 34.09375 206.804688 34.292969 207.453125 34.554688 208.085938 C 34.8125 208.714844 35.132812 209.3125 35.511719 209.878906 C 35.890625 210.445312 36.320312 210.96875 36.804688 211.453125 C 37.285156 211.933594 37.808594 212.363281 38.375 212.742188 C 38.945312 213.121094 39.542969 213.441406 40.171875 213.703125 C 40.800781 213.964844 41.449219 214.160156 42.117188 214.292969 C 42.785156 214.429688 43.460938 214.496094 44.144531 214.496094 L 55.492188 214.496094 L 63.183594 226.03125 C 63.277344 226.171875 63.386719 226.300781 63.515625 226.417969 C 63.640625 226.53125 63.78125 226.628906 63.929688 226.710938 C 64.082031 226.789062 64.238281 226.851562 64.40625 226.894531 C 64.570312 226.933594 64.738281 226.957031 64.910156 226.957031 C 65.082031 226.957031 65.25 226.933594 65.414062 226.894531 C 65.582031 226.851562 65.738281 226.789062 65.890625 226.710938 C 66.042969 226.628906 66.179688 226.53125 66.304688 226.417969 C 66.433594 226.300781 66.542969 226.171875 66.636719 226.03125 L 74.328125 214.496094 L 85.679688 214.496094 C 86.359375 214.496094 87.035156 214.429688 87.703125 214.292969 C 88.371094 214.160156 89.019531 213.964844 89.648438 213.703125 C 90.28125 213.441406 90.878906 213.121094 91.445312 212.742188 C 92.011719 212.363281 92.535156 211.933594 93.015625 211.453125 C 93.5 210.96875 93.929688 210.445312 94.308594 209.878906 C 94.6875 209.3125 95.007812 208.714844 95.269531 208.085938 C 95.53125 207.453125 95.726562 206.804688 95.859375 206.136719 C 95.992188 205.46875 96.0625 204.792969 96.0625 204.113281 L 96.0625 166.730469 C 96.0625 166.050781 95.992188 165.375 95.859375 164.707031 C 95.726562 164.039062 95.53125 163.386719 95.269531 162.757812 C 95.007812 162.128906 94.6875 161.53125 94.308594 160.964844 C 93.929688 160.398438 93.5 159.875 93.015625 159.390625 C 92.535156 158.910156 92.011719 158.480469 91.445312 158.101562 C 90.878906 157.722656 90.28125 157.402344 89.648438 157.140625 C 89.019531 156.878906 88.371094 156.679688 87.703125 156.546875 C 87.035156 156.414062 86.359375 156.347656 85.679688 156.347656 Z M 91.90625 204.113281 C 91.90625 204.519531 91.867188 204.925781 91.789062 205.328125 C 91.707031 205.726562 91.589844 206.117188 91.433594 206.496094 C 91.277344 206.871094 91.082031 207.230469 90.855469 207.570312 C 90.628906 207.910156 90.371094 208.226562 90.082031 208.515625 C 89.792969 208.804688 89.476562 209.0625 89.136719 209.289062 C 88.796875 209.515625 88.4375 209.710938 88.0625 209.867188 C 87.683594 210.023438 87.292969 210.140625 86.894531 210.222656 C 86.492188 210.300781 86.085938 210.339844 85.679688 210.34375 L 73.21875 210.34375 C 72.871094 210.34375 72.542969 210.425781 72.238281 210.589844 C 71.933594 210.753906 71.683594 210.976562 71.488281 211.265625 L 64.910156 221.136719 L 58.332031 211.265625 C 58.140625 210.976562 57.890625 210.753906 57.582031 210.589844 C 57.277344 210.425781 56.949219 210.34375 56.605469 210.34375 L 44.144531 210.34375 C 43.734375 210.339844 43.328125 210.300781 42.929688 210.222656 C 42.527344 210.140625 42.136719 210.023438 41.761719 209.867188 C 41.382812 209.710938 41.023438 209.515625 40.683594 209.289062 C 40.34375 209.0625 40.027344 208.804688 39.738281 208.515625 C 39.449219 208.226562 39.191406 207.910156 38.964844 207.570312 C 38.738281 207.230469 38.546875 206.871094 38.390625 206.496094 C 38.234375 206.117188 38.113281 205.726562 38.035156 205.328125 C 37.953125 204.925781 37.914062 204.519531 37.914062 204.113281 L 37.914062 197.882812 L 91.90625 197.882812 Z M 91.90625 193.726562 L 37.914062 193.726562 L 37.914062 166.730469 C 37.914062 166.320312 37.953125 165.917969 38.035156 165.515625 C 38.113281 165.113281 38.234375 164.726562 38.390625 164.347656 C 38.546875 163.96875 38.738281 163.609375 38.964844 163.269531 C 39.191406 162.929688 39.449219 162.617188 39.738281 162.328125 C 40.027344 162.039062 40.34375 161.78125 40.683594 161.550781 C 41.023438 161.324219 41.382812 161.132812 41.761719 160.976562 C 42.136719 160.820312 42.527344 160.703125 42.929688 160.621094 C 43.328125 160.542969 43.734375 160.5 44.144531 160.5 L 85.679688 160.5 C 86.085938 160.5 86.492188 160.542969 86.894531 160.621094 C 87.292969 160.703125 87.683594 160.820312 88.0625 160.976562 C 88.4375 161.132812 88.796875 161.324219 89.136719 161.550781 C 89.476562 161.78125 89.792969 162.039062 90.082031 162.328125 C 90.371094 162.617188 90.628906 162.929688 90.855469 163.269531 C 91.082031 163.609375 91.277344 163.96875 91.433594 164.347656 C 91.589844 164.726562 91.707031 165.113281 91.789062 165.515625 C 91.867188 165.917969 91.90625 166.320312 91.90625 166.730469 Z M 56.605469 179.191406 C 56.605469 179.464844 56.578125 179.734375 56.523438 180 C 56.472656 180.269531 56.390625 180.527344 56.289062 180.78125 C 56.183594 181.03125 56.054688 181.273438 55.902344 181.5 C 55.753906 181.726562 55.582031 181.933594 55.386719 182.128906 C 55.195312 182.320312 54.984375 182.492188 54.757812 182.644531 C 54.53125 182.796875 54.292969 182.925781 54.039062 183.027344 C 53.789062 183.132812 53.527344 183.210938 53.261719 183.265625 C 52.992188 183.316406 52.722656 183.34375 52.449219 183.34375 C 52.175781 183.34375 51.90625 183.316406 51.640625 183.265625 C 51.371094 183.210938 51.113281 183.132812 50.859375 183.027344 C 50.609375 182.925781 50.371094 182.796875 50.144531 182.644531 C 49.917969 182.492188 49.707031 182.320312 49.511719 182.128906 C 49.320312 181.933594 49.148438 181.726562 48.996094 181.5 C 48.84375 181.273438 48.71875 181.03125 48.613281 180.78125 C 48.507812 180.527344 48.429688 180.269531 48.375 180 C 48.324219 179.734375 48.296875 179.464844 48.296875 179.191406 C 48.296875 178.917969 48.324219 178.648438 48.375 178.378906 C 48.429688 178.113281 48.507812 177.855469 48.613281 177.601562 C 48.71875 177.351562 48.84375 177.109375 48.996094 176.882812 C 49.148438 176.65625 49.320312 176.445312 49.511719 176.253906 C 49.707031 176.0625 49.917969 175.890625 50.144531 175.738281 C 50.371094 175.585938 50.609375 175.457031 50.859375 175.355469 C 51.113281 175.25 51.371094 175.171875 51.640625 175.117188 C 51.90625 175.0625 52.175781 175.039062 52.449219 175.039062 C 52.722656 175.039062 52.992188 175.0625 53.261719 175.117188 C 53.527344 175.171875 53.789062 175.25 54.039062 175.355469 C 54.292969 175.457031 54.53125 175.585938 54.757812 175.738281 C 54.984375 175.890625 55.195312 176.0625 55.386719 176.253906 C 55.582031 176.445312 55.753906 176.65625 55.902344 176.882812 C 56.054688 177.109375 56.183594 177.351562 56.289062 177.601562 C 56.390625 177.855469 56.472656 178.113281 56.523438 178.378906 C 56.578125 178.648438 56.605469 178.917969 56.605469 179.191406 Z M 81.523438 179.191406 C 81.523438 179.464844 81.496094 179.734375 81.445312 180 C 81.390625 180.269531 81.3125 180.527344 81.207031 180.78125 C 81.105469 181.03125 80.976562 181.273438 80.824219 181.5 C 80.671875 181.726562 80.5 181.933594 80.308594 182.128906 C 80.113281 182.320312 79.90625 182.492188 79.679688 182.644531 C 79.453125 182.796875 79.210938 182.925781 78.960938 183.027344 C 78.707031 183.132812 78.449219 183.210938 78.179688 183.265625 C 77.914062 183.316406 77.644531 183.34375 77.371094 183.34375 C 77.097656 183.34375 76.828125 183.316406 76.5625 183.265625 C 76.292969 183.210938 76.035156 183.132812 75.78125 183.027344 C 75.53125 182.925781 75.289062 182.796875 75.0625 182.644531 C 74.835938 182.492188 74.628906 182.320312 74.433594 182.128906 C 74.242188 181.933594 74.070312 181.726562 73.917969 181.5 C 73.765625 181.273438 73.636719 181.03125 73.535156 180.78125 C 73.429688 180.527344 73.351562 180.269531 73.296875 180 C 73.246094 179.734375 73.21875 179.464844 73.21875 179.191406 C 73.21875 178.917969 73.246094 178.648438 73.296875 178.378906 C 73.351562 178.113281 73.429688 177.855469 73.535156 177.601562 C 73.636719 177.351562 73.765625 177.109375 73.917969 176.882812 C 74.070312 176.65625 74.242188 176.445312 74.433594 176.253906 C 74.628906 176.0625 74.835938 175.890625 75.0625 175.738281 C 75.289062 175.585938 75.53125 175.457031 75.78125 175.355469 C 76.035156 175.25 76.292969 175.171875 76.5625 175.117188 C 76.828125 175.0625 77.097656 175.039062 77.371094 175.039062 C 77.644531 175.039062 77.914062 175.0625 78.179688 175.117188 C 78.449219 175.171875 78.707031 175.25 78.960938 175.355469 C 79.210938 175.457031 79.453125 175.585938 79.679688 175.738281 C 79.90625 175.890625 80.113281 176.0625 80.308594 176.253906 C 80.5 176.445312 80.671875 176.65625 80.824219 176.882812 C 80.976562 177.109375 81.105469 177.351562 81.207031 177.601562 C 81.3125 177.855469 81.390625 178.113281 81.445312 178.378906 C 81.496094 178.648438 81.523438 178.917969 81.523438 179.191406 Z M 25.453125 170.882812 L 25.453125 187.496094 C 25.453125 187.773438 25.398438 188.039062 25.292969 188.292969 C 25.1875 188.546875 25.039062 188.773438 24.84375 188.964844 C 24.648438 189.160156 24.425781 189.3125 24.171875 189.417969 C 23.917969 189.523438 23.652344 189.574219 23.375 189.574219 C 23.101562 189.574219 22.835938 189.523438 22.582031 189.417969 C 22.328125 189.3125 22.101562 189.160156 21.90625 188.964844 C 21.714844 188.773438 21.5625 188.546875 21.457031 188.292969 C 21.351562 188.039062 21.300781 187.773438 21.300781 187.496094 L 21.300781 170.882812 C 21.300781 170.609375 21.351562 170.34375 21.457031 170.089844 C 21.5625 169.835938 21.714844 169.609375 21.90625 169.414062 C 22.101562 169.222656 22.328125 169.070312 22.582031 168.964844 C 22.835938 168.859375 23.101562 168.808594 23.375 168.808594 C 23.652344 168.808594 23.917969 168.859375 24.171875 168.964844 C 24.425781 169.070312 24.648438 169.222656 24.84375 169.414062 C 25.039062 169.609375 25.1875 169.835938 25.292969 170.089844 C 25.398438 170.34375 25.453125 170.609375 25.453125 170.882812 Z M 108.523438 170.882812 L 108.523438 187.496094 C 108.523438 187.773438 108.46875 188.039062 108.363281 188.292969 C 108.257812 188.546875 108.109375 188.773438 107.914062 188.964844 C 107.71875 189.160156 107.496094 189.3125 107.238281 189.417969 C 106.984375 189.523438 106.71875 189.574219 106.445312 189.574219 C 106.167969 189.574219 105.90625 189.523438 105.652344 189.417969 C 105.394531 189.3125 105.171875 189.160156 104.976562 188.964844 C 104.78125 188.773438 104.632812 188.546875 104.527344 188.292969 C 104.421875 188.039062 104.367188 187.773438 104.367188 187.496094 L 104.367188 170.882812 C 104.367188 170.609375 104.421875 170.34375 104.527344 170.089844 C 104.632812 169.835938 104.78125 169.609375 104.976562 169.414062 C 105.171875 169.222656 105.394531 169.070312 105.652344 168.964844 C 105.90625 168.859375 106.167969 168.808594 106.445312 168.808594 C 106.71875 168.808594 106.984375 168.859375 107.238281 168.964844 C 107.496094 169.070312 107.71875 169.222656 107.914062 169.414062 C 108.109375 169.609375 108.257812 169.835938 108.363281 170.089844 C 108.46875 170.34375 108.523438 170.609375 108.523438 170.882812 Z M 108.523438 170.882812 " fill-opacity="1" fill-rule="nonzero"/></g><g fill="#000000" fill-opacity="1"><g transform="translate(122.739656, 206.999986)"><g><path d="M 44.28125 -21.484375 C 44.28125 -17.035156 43.550781 -13.160156 42.09375 -9.859375 C 40.632812 -6.566406 38.394531 -4 35.375 -2.15625 C 32.351562 -0.320312 28.519531 0.59375 23.875 0.59375 C 19.238281 0.59375 15.410156 -0.320312 12.390625 -2.15625 C 9.367188 -4 7.128906 -6.578125 5.671875 -9.890625 C 4.210938 -13.210938 3.484375 -17.097656 3.484375 -21.546875 C 3.484375 -25.984375 4.210938 -29.84375 5.671875 -33.125 C 7.128906 -36.40625 9.367188 -38.953125 12.390625 -40.765625 C 15.410156 -42.585938 19.257812 -43.5 23.9375 -43.5 C 28.582031 -43.5 32.40625 -42.585938 35.40625 -40.765625 C 38.40625 -38.953125 40.632812 -36.394531 42.09375 -33.09375 C 43.550781 -29.789062 44.28125 -25.921875 44.28125 -21.484375 Z M 13.015625 -21.484375 C 13.015625 -17.003906 13.875 -13.472656 15.59375 -10.890625 C 17.320312 -8.304688 20.082031 -7.015625 23.875 -7.015625 C 27.757812 -7.015625 30.539062 -8.304688 32.21875 -10.890625 C 33.894531 -13.472656 34.734375 -17.003906 34.734375 -21.484375 C 34.734375 -25.960938 33.894531 -29.488281 32.21875 -32.0625 C 30.539062 -34.644531 27.78125 -35.9375 23.9375 -35.9375 C 20.101562 -35.9375 17.320312 -34.644531 15.59375 -32.0625 C 13.875 -29.488281 13.015625 -25.960938 13.015625 -21.484375 Z M 13.015625 -21.484375 "/></g></g></g><g fill="#000000" fill-opacity="1"><g transform="translate(170.499614, 206.999986)"><g><path d="M 22.984375 -33.359375 C 23.421875 -33.359375 23.9375 -33.335938 24.53125 -33.296875 C 25.132812 -33.253906 25.617188 -33.195312 25.984375 -33.125 L 25.3125 -24.71875 C 25 -24.800781 24.582031 -24.867188 24.0625 -24.921875 C 23.539062 -24.984375 23.082031 -25.015625 22.6875 -25.015625 C 21.164062 -25.015625 19.703125 -24.742188 18.296875 -24.203125 C 16.898438 -23.671875 15.769531 -22.800781 14.90625 -21.59375 C 14.050781 -20.394531 13.625 -18.757812 13.625 -16.6875 L 13.625 0 L 4.6875 0 L 4.6875 -32.765625 L 11.453125 -32.765625 L 12.78125 -27.234375 L 13.203125 -27.234375 C 14.160156 -28.921875 15.476562 -30.363281 17.15625 -31.5625 C 18.84375 -32.757812 20.785156 -33.359375 22.984375 -33.359375 Z M 22.984375 -33.359375 "/></g></g></g><g fill="#000000" fill-opacity="1"><g transform="translate(197.739583, 206.999986)"><g><path d="M 18.125 -33.421875 C 22.519531 -33.421875 25.882812 -32.46875 28.21875 -30.5625 C 30.5625 -28.664062 31.734375 -25.757812 31.734375 -21.84375 L 31.734375 0 L 25.5 0 L 23.765625 -4.4375 L 23.515625 -4.4375 C 22.117188 -2.675781 20.640625 -1.394531 19.078125 -0.59375 C 17.515625 0.195312 15.375 0.59375 12.65625 0.59375 C 9.738281 0.59375 7.316406 -0.242188 5.390625 -1.921875 C 3.472656 -3.597656 2.515625 -6.21875 2.515625 -9.78125 C 2.515625 -13.257812 3.734375 -15.816406 6.171875 -17.453125 C 8.617188 -19.097656 12.28125 -20.019531 17.15625 -20.21875 L 22.859375 -20.40625 L 22.859375 -21.84375 C 22.859375 -23.5625 22.40625 -24.816406 21.5 -25.609375 C 20.601562 -26.410156 19.359375 -26.8125 17.765625 -26.8125 C 16.160156 -26.8125 14.597656 -26.582031 13.078125 -26.125 C 11.554688 -25.664062 10.035156 -25.097656 8.515625 -24.421875 L 5.578125 -30.484375 C 7.296875 -31.359375 9.234375 -32.066406 11.390625 -32.609375 C 13.554688 -33.148438 15.800781 -33.421875 18.125 -33.421875 Z M 22.859375 -15.1875 L 19.375 -15.0625 C 16.5 -14.976562 14.5 -14.457031 13.375 -13.5 C 12.257812 -12.539062 11.703125 -11.28125 11.703125 -9.71875 C 11.703125 -8.363281 12.097656 -7.394531 12.890625 -6.8125 C 13.691406 -6.226562 14.734375 -5.9375 16.015625 -5.9375 C 17.941406 -5.9375 19.5625 -6.503906 20.875 -7.640625 C 22.195312 -8.785156 22.859375 -10.398438 22.859375 -12.484375 Z M 22.859375 -15.1875 "/></g></g></g><g fill="#000000" fill-opacity="1"><g transform="translate(233.979552, 206.999986)"><g><path d="M 13.625 0 L 4.6875 0 L 4.6875 -45.59375 L 13.625 -45.59375 Z M 13.625 0 "/></g></g></g><g fill="#000000" fill-opacity="1"><g transform="translate(252.279535, 206.999986)"><g><path d="M 3.421875 -4.203125 C 3.421875 -6.035156 3.921875 -7.320312 4.921875 -8.0625 C 5.921875 -8.8125 7.140625 -9.1875 8.578125 -9.1875 C 9.984375 -9.1875 11.1875 -8.8125 12.1875 -8.0625 C 13.1875 -7.320312 13.6875 -6.035156 13.6875 -4.203125 C 13.6875 -2.441406 13.1875 -1.171875 12.1875 -0.390625 C 11.1875 0.390625 9.984375 0.78125 8.578125 0.78125 C 7.140625 0.78125 5.921875 0.390625 4.921875 -0.390625 C 3.921875 -1.171875 3.421875 -2.441406 3.421875 -4.203125 Z M 3.421875 -4.203125 "/></g></g></g><g fill="#000000" fill-opacity="1"><g transform="translate(269.379514, 206.999986)"><g><path d="M 18.125 -33.421875 C 22.519531 -33.421875 25.882812 -32.46875 28.21875 -30.5625 C 30.5625 -28.664062 31.734375 -25.757812 31.734375 -21.84375 L 31.734375 0 L 25.5 0 L 23.765625 -4.4375 L 23.515625 -4.4375 C 22.117188 -2.675781 20.640625 -1.394531 19.078125 -0.59375 C 17.515625 0.195312 15.375 0.59375 12.65625 0.59375 C 9.738281 0.59375 7.316406 -0.242188 5.390625 -1.921875 C 3.472656 -3.597656 2.515625 -6.21875 2.515625 -9.78125 C 2.515625 -13.257812 3.734375 -15.816406 6.171875 -17.453125 C 8.617188 -19.097656 12.28125 -20.019531 17.15625 -20.21875 L 22.859375 -20.40625 L 22.859375 -21.84375 C 22.859375 -23.5625 22.40625 -24.816406 21.5 -25.609375 C 20.601562 -26.410156 19.359375 -26.8125 17.765625 -26.8125 C 16.160156 -26.8125 14.597656 -26.582031 13.078125 -26.125 C 11.554688 -25.664062 10.035156 -25.097656 8.515625 -24.421875 L 5.578125 -30.484375 C 7.296875 -31.359375 9.234375 -32.066406 11.390625 -32.609375 C 13.554688 -33.148438 15.800781 -33.421875 18.125 -33.421875 Z M 22.859375 -15.1875 L 19.375 -15.0625 C 16.5 -14.976562 14.5 -14.457031 13.375 -13.5 C 12.257812 -12.539062 11.703125 -11.28125 11.703125 -9.71875 C 11.703125 -8.363281 12.097656 -7.394531 12.890625 -6.8125 C 13.691406 -6.226562 14.734375 -5.9375 16.015625 -5.9375 C 17.941406 -5.9375 19.5625 -6.503906 20.875 -7.640625 C 22.195312 -8.785156 22.859375 -10.398438 22.859375 -12.484375 Z M 22.859375 -15.1875 "/></g></g></g><g fill="#000000" fill-opacity="1"><g transform="translate(305.619483, 206.999986)"><g><path d="M 9.1875 -45.59375 C 10.5 -45.59375 11.632812 -45.28125 12.59375 -44.65625 C 13.5625 -44.039062 14.046875 -42.894531 14.046875 -41.21875 C 14.046875 -39.582031 13.5625 -38.441406 12.59375 -37.796875 C 11.632812 -37.160156 10.5 -36.84375 9.1875 -36.84375 C 7.820312 -36.84375 6.664062 -37.160156 5.71875 -37.796875 C 4.78125 -38.441406 4.3125 -39.582031 4.3125 -41.21875 C 4.3125 -42.894531 4.78125 -44.039062 5.71875 -44.65625 C 6.664062 -45.28125 7.820312 -45.59375 9.1875 -45.59375 Z M 13.625 -32.765625 L 13.625 0 L 4.6875 0 L 4.6875 -32.765625 Z M 13.625 -32.765625 "/></g></g></g></svg>